<?xml version="1.0" encoding="UTF-8" standalone="no"?>
<!-- Created with Inkscape (http://www.inkscape.org/) -->

<svg
   width="430"
   height="30"
   viewBox="0 0 113.77083 7.9375001"
   version="1.1"
   id="svg18401"
   xmlns="http://www.w3.org/2000/svg"
   xmlns:svg="http://www.w3.org/2000/svg">
  <defs
     id="defs18398">
    <clipPath
       clipPathUnits="userSpaceOnUse"
       id="clipPath2196">
      <path
         d="M 485.541,442.995 H 809.826 V 418.561 H 485.541 Z"
         id="path2194" />
    </clipPath>
    <linearGradient
       x1="0"
       y1="0"
       x2="1"
       y2="0"
       gradientUnits="userSpaceOnUse"
       gradientTransform="matrix(-171.8689,0,0,171.8689,814.90192,436.37302)"
       spreadMethod="pad"
       id="linearGradient2212">
      <stop
         style="stop-opacity:1;stop-color:#fbe6b3"
         offset="0"
         id="stop2202" />
      <stop
         style="stop-opacity:1;stop-color:#fbe6b3"
         offset="0"
         id="stop2204" />
      <stop
         style="stop-opacity:1;stop-color:#ba9211"
         offset="0.227907"
         id="stop2206" />
      <stop
         style="stop-opacity:1;stop-color:#e1c278"
         offset="0.606132"
         id="stop2208" />
      <stop
         style="stop-opacity:1;stop-color:#b7973f"
         offset="1"
         id="stop2210" />
    </linearGradient>
    <linearGradient
       x1="0"
       y1="0"
       x2="1"
       y2="0"
       gradientUnits="userSpaceOnUse"
       gradientTransform="matrix(-171.8689,0,0,171.8689,814.90192,425.18393)"
       spreadMethod="pad"
       id="linearGradient2228">
      <stop
         style="stop-opacity:1;stop-color:#fbe6b3"
         offset="0"
         id="stop2218" />
      <stop
         style="stop-opacity:1;stop-color:#fbe6b3"
         offset="0"
         id="stop2220" />
      <stop
         style="stop-opacity:1;stop-color:#ba9211"
         offset="0.227907"
         id="stop2222" />
      <stop
         style="stop-opacity:1;stop-color:#e1c278"
         offset="0.606132"
         id="stop2224" />
      <stop
         style="stop-opacity:1;stop-color:#b7973f"
         offset="1"
         id="stop2226" />
    </linearGradient>
    <linearGradient
       x1="0"
       y1="0"
       x2="1"
       y2="0"
       gradientUnits="userSpaceOnUse"
       gradientTransform="matrix(-171.8689,0,0,171.8689,814.90192,430.77765)"
       spreadMethod="pad"
       id="linearGradient2244">
      <stop
         style="stop-opacity:1;stop-color:#fbe6b3"
         offset="0"
         id="stop2234" />
      <stop
         style="stop-opacity:1;stop-color:#fbe6b3"
         offset="0"
         id="stop2236" />
      <stop
         style="stop-opacity:1;stop-color:#ba9211"
         offset="0.227907"
         id="stop2238" />
      <stop
         style="stop-opacity:1;stop-color:#e1c278"
         offset="0.606132"
         id="stop2240" />
      <stop
         style="stop-opacity:1;stop-color:#b7973f"
         offset="1"
         id="stop2242" />
    </linearGradient>
    <linearGradient
       x1="0"
       y1="0"
       x2="1"
       y2="0"
       gradientUnits="userSpaceOnUse"
       gradientTransform="matrix(-394.86313,0,0,394.86313,871.28784,430.77893)"
       spreadMethod="pad"
       id="linearGradient2260">
      <stop
         style="stop-opacity:1;stop-color:#fbe6b3"
         offset="0"
         id="stop2250" />
      <stop
         style="stop-opacity:1;stop-color:#fbe6b3"
         offset="0"
         id="stop2252" />
      <stop
         style="stop-opacity:1;stop-color:#ba9211"
         offset="0.227907"
         id="stop2254" />
      <stop
         style="stop-opacity:1;stop-color:#e1c278"
         offset="0.606132"
         id="stop2256" />
      <stop
         style="stop-opacity:1;stop-color:#b7973f"
         offset="1"
         id="stop2258" />
    </linearGradient>
    <linearGradient
       x1="0"
       y1="0"
       x2="1"
       y2="0"
       gradientUnits="userSpaceOnUse"
       gradientTransform="matrix(-171.8689,0,0,171.8689,814.90192,430.77893)"
       spreadMethod="pad"
       id="linearGradient2276">
      <stop
         style="stop-opacity:1;stop-color:#fbe6b3"
         offset="0"
         id="stop2266" />
      <stop
         style="stop-opacity:1;stop-color:#fbe6b3"
         offset="0"
         id="stop2268" />
      <stop
         style="stop-opacity:1;stop-color:#ba9211"
         offset="0.227907"
         id="stop2270" />
      <stop
         style="stop-opacity:1;stop-color:#e1c278"
         offset="0.606132"
         id="stop2272" />
      <stop
         style="stop-opacity:1;stop-color:#b7973f"
         offset="1"
         id="stop2274" />
    </linearGradient>
    <linearGradient
       x1="0"
       y1="0"
       x2="1"
       y2="0"
       gradientUnits="userSpaceOnUse"
       gradientTransform="matrix(-171.8689,0,0,171.8689,814.90192,430.77762)"
       spreadMethod="pad"
       id="linearGradient2292">
      <stop
         style="stop-opacity:1;stop-color:#fbe6b3"
         offset="0"
         id="stop2282" />
      <stop
         style="stop-opacity:1;stop-color:#fbe6b3"
         offset="0"
         id="stop2284" />
      <stop
         style="stop-opacity:1;stop-color:#ba9211"
         offset="0.227907"
         id="stop2286" />
      <stop
         style="stop-opacity:1;stop-color:#e1c278"
         offset="0.606132"
         id="stop2288" />
      <stop
         style="stop-opacity:1;stop-color:#b7973f"
         offset="1"
         id="stop2290" />
    </linearGradient>
  </defs>
  <g
     id="layer1"
     transform="rotate(180,114.63785,72.888902)">
    <g
       id="g2190"
       transform="matrix(0.35277777,0,0,-0.35277777,-55.781938,294.11688)">
      <g
         id="g2192" />
      <g
         id="g2356">
        <g
           clip-path="url(#clipPath2196)"
           opacity="0.800003"
           id="g2354"
           style="display:inline">
          <g
             id="g2302"
             style="display:inline"
             transform="matrix(1,0,0,0.91910253,0,36.291913)">
            <g
               id="g2300"
               transform="matrix(1,0,0,1.042411,0,-18.766471)">
              <g
                 id="g2298">
                <g
                   id="g2296">
                  <path
                     d="m 782.535,435.341 c 0.292,0 0.558,0.064 0.742,0.123 0.519,0.174 1.012,0.606 1.226,1.074 0.143,0.32 0.151,0.86 -0.208,1.03 -0.328,0.158 -0.923,-0.159 -1.496,-0.464 -0.543,-0.289 -1.255,-0.667 -1.927,-0.625 0.164,-0.312 0.398,-0.599 0.716,-0.84 0.3,-0.226 0.639,-0.298 0.947,-0.298 m 0.989,7.15 c 0.061,0 0.122,-10e-4 0.185,-0.005 2.232,-0.113 3.933,-1.436 4.665,-3.63 0.91,-2.725 0.073,-6.05 -1.945,-7.734 -0.376,-0.316 -0.788,-0.589 -1.224,-0.81 -0.259,-0.13 -0.573,-0.028 -0.705,0.23 -0.131,0.258 -0.028,0.574 0.23,0.705 0.365,0.184 0.708,0.413 1.025,0.678 1.708,1.425 2.405,4.261 1.625,6.599 -0.346,1.036 -1.289,2.791 -3.725,2.915 -1.5,0.072 -2.478,-1.129 -2.864,-2.186 -0.16,-0.437 -0.26,-0.957 -0.243,-1.483 0.298,-0.393 0.648,-0.331 1.76,0.26 0.762,0.406 1.629,0.867 2.435,0.487 0.927,-0.441 1.091,-1.571 0.716,-2.41 -0.338,-0.742 -1.048,-1.369 -1.854,-1.638 -0.995,-0.323 -1.935,-0.204 -2.65,0.333 -1.383,1.051 -1.833,2.939 -1.148,4.812 0.645,1.765 2.09,2.877 3.717,2.877"
                     style="fill:url(#linearGradient2212);stroke:none"
                     id="path2294" />
                </g>
              </g>
            </g>
          </g>
          <g
             id="g2312"
             style="display:inline"
             transform="matrix(1,0,0,0.96345729,0,16.74608)">
            <g
               id="g2310">
              <g
                 id="g2308">
                <g
                   id="g2306">
                  <path
                     d="m 784.091,423.949 c 0.077,0 0.146,0.012 0.206,0.041 0.355,0.165 0.347,0.715 0.205,1.031 -0.213,0.468 -0.705,0.897 -1.225,1.065 -0.381,0.128 -1.103,0.274 -1.691,-0.169 -0.317,-0.241 -0.551,-0.527 -0.715,-0.838 0.672,0.042 1.385,-0.337 1.928,-0.625 0.469,-0.249 0.951,-0.505 1.292,-0.505 m 0.877,7.354 c 0.08,0 0.162,-0.018 0.238,-0.057 0.436,-0.222 0.848,-0.495 1.224,-0.812 2.02,-1.688 2.855,-5.018 1.942,-7.744 -0.733,-2.19 -2.434,-3.508 -4.664,-3.619 -1.691,-0.104 -3.231,1.04 -3.901,2.873 -0.685,1.872 -0.235,3.76 1.146,4.81 0.722,0.541 1.661,0.658 2.652,0.329 0.79,-0.257 1.519,-0.897 1.852,-1.63 0.371,-0.829 0.202,-1.986 -0.715,-2.413 -0.805,-0.377 -1.672,0.083 -2.434,0.487 -1.112,0.592 -1.463,0.654 -1.76,0.26 -0.017,-0.526 0.083,-1.046 0.243,-1.484 0.386,-1.055 1.366,-2.244 2.863,-2.185 2.434,0.121 3.377,1.872 3.724,2.905 0.783,2.339 0.087,5.18 -1.622,6.608 -0.317,0.266 -0.661,0.495 -1.027,0.681 -0.257,0.131 -0.36,0.446 -0.228,0.705 0.092,0.182 0.276,0.286 0.467,0.286"
                     style="fill:url(#linearGradient2228);stroke:none"
                     id="path2304" />
                </g>
              </g>
            </g>
          </g>
          <g
             id="g2322"
             style="display:inline"
             transform="matrix(0.99277213,0,0,1.0084773,5.7615855,-3.5774042)">
            <g
               id="g2320"
               style="display:inline"
               transform="matrix(0.93267183,0,0,0.91298743,52.815113,38.365266)">
              <g
                 id="g2318">
                <g
                   id="g2316">
                  <path
                     d="m 795.986,432.976 c -0.165,0 -0.325,0.078 -0.425,0.219 -0.134,0.187 -0.13,0.44 0.009,0.623 1.236,1.619 0.782,4.606 -0.351,7.082 -1.128,-3.898 -5.198,-7.964 -9.107,-10.122 3.909,-2.158 7.979,-6.225 9.107,-10.122 1.133,2.475 1.587,5.463 0.351,7.081 -0.139,0.183 -0.143,0.436 -0.009,0.623 0.134,0.188 0.376,0.264 0.593,0.192 4.064,-1.366 9.754,0.045 12.369,2.226 -2.615,2.18 -8.305,3.594 -12.369,2.225 -0.055,-0.019 -0.112,-0.027 -0.168,-0.027 m -1.005,10.019 c 0.181,0 0.352,-0.094 0.449,-0.253 1.273,-2.102 2.548,-5.792 1.591,-8.42 4.558,0.96 10.219,-0.741 12.651,-3.174 0.205,-0.205 0.205,-0.536 0,-0.741 -2.432,-2.432 -8.093,-4.136 -12.651,-3.174 0.956,-2.628 -0.318,-6.318 -1.591,-8.42 -0.118,-0.195 -0.348,-0.291 -0.57,-0.238 -0.221,0.052 -0.383,0.242 -0.401,0.469 -0.319,4.114 -5.282,9.143 -9.717,11.261 -0.182,0.086 -0.299,0.271 -0.299,0.473 0,0.201 0.117,0.386 0.299,0.472 4.435,2.118 9.398,7.147 9.717,11.261 0.018,0.227 0.18,0.417 0.401,0.469 0.04,0.01 0.081,0.015 0.121,0.015"
                     style="fill:url(#linearGradient2244);stroke:none"
                     id="path2314" />
                </g>
              </g>
            </g>
          </g>
          <g
             id="g2332"
             transform="matrix(1,0,0,-1,0,862.51504)"
             style="display:inline">
            <g
               id="g2330"
               style="display:inline">
              <g
                 id="g2328">
                <g
                   id="g2326">
                  <path
                     d="m 486.065,431.303 h 284.854 c 0.29,0 0.524,-0.235 0.524,-0.524 0,-0.289 -0.234,-0.524 -0.524,-0.524 H 486.065 c -0.29,0 -0.524,0.235 -0.524,0.524 0,0.289 0.234,0.524 0.524,0.524"
                     style="fill:url(#linearGradient2260);stroke:none"
                     id="path2324" />
                </g>
              </g>
            </g>
          </g>
          <g
             id="g2342">
            <g
               id="g2340"
               transform="translate(0,1.0042948)">
              <g
                 id="g2338">
                <g
                   id="g2336">
                  <path
                     d="m 778.146,431.303 h 6.822 c 0.289,0 0.524,-0.235 0.524,-0.524 0,-0.289 -0.235,-0.524 -0.524,-0.524 h -6.822 c -0.29,0 -0.525,0.235 -0.525,0.524 0,0.289 0.235,0.524 0.525,0.524"
                     style="fill:url(#linearGradient2276);stroke:none"
                     id="path2334" />
                </g>
              </g>
            </g>
          </g>
          <g
             id="g2352"
             transform="translate(0,0.95704379)"
             style="display:inline">
            <g
               id="g2350">
              <g
                 id="g2348">
                <g
                   id="g2346">
                  <path
                     d="m 777.405,430.778 -2.874,2.873 -2.873,-2.873 2.873,-2.874 z m -2.874,4.139 c 0.135,0 0.269,-0.051 0.371,-0.153 l 3.616,-3.616 c 0.205,-0.205 0.205,-0.536 0,-0.741 l -3.616,-3.615 c -0.205,-0.205 -0.536,-0.205 -0.741,0 l -3.615,3.615 c -0.205,0.205 -0.205,0.536 0,0.741 l 3.615,3.616 c 0.103,0.102 0.236,0.153 0.37,0.153"
                     style="fill:url(#linearGradient2292);stroke:none"
                     id="path2344" />
                </g>
              </g>
            </g>
          </g>
        </g>
      </g>
    </g>
  </g>
</svg>
