<?xml version="1.0" encoding="UTF-8" standalone="no"?>
<!-- Generator: Adobe Illustrator 24.1.0, SVG Export Plug-In . SVG Version: 6.00 Build 0)  -->

<svg
   version="1.1"
   id="Capa_1"
   x="0px"
   y="0px"
   viewBox="0 0 116 216.57"
   style="enable-background:new 0 0 116 216.57;"
   xml:space="preserve"
   sodipodi:docname="lbg-patron.svg"
   inkscape:version="1.2.2 (b0a8486541, 2022-12-01)"
   xmlns:inkscape="http://www.inkscape.org/namespaces/inkscape"
   xmlns:sodipodi="http://sodipodi.sourceforge.net/DTD/sodipodi-0.dtd"
   xmlns="http://www.w3.org/2000/svg"
   xmlns:svg="http://www.w3.org/2000/svg"><defs
   id="defs2101" /><sodipodi:namedview
   id="namedview2099"
   pagecolor="#505050"
   bordercolor="#eeeeee"
   borderopacity="1"
   inkscape:showpageshadow="0"
   inkscape:pageopacity="0"
   inkscape:pagecheckerboard="0"
   inkscape:deskcolor="#505050"
   showgrid="false"
   inkscape:zoom="2.8242478"
   inkscape:cx="14.163063"
   inkscape:cy="118.96973"
   inkscape:window-width="1920"
   inkscape:window-height="1011"
   inkscape:window-x="0"
   inkscape:window-y="32"
   inkscape:window-maximized="1"
   inkscape:current-layer="Capa_1" />
<style
   type="text/css"
   id="style2080">
	.st0{fill:#FFFFFF;}
</style>
<g
   id="g2088"
   style="opacity:0.03">
	<path
   class="st0"
   d="M33.79,165.95c1.44,5.32,7.17,3.05,7.17,3.05C38.29,163.86,33.79,165.95,33.79,165.95z"
   id="path2082" />
	<path
   class="st0"
   d="M31.26,159.9c-0.03-0.01-0.06,0-0.08,0.02c-1.53,1.76-2.59,3.96-3.29,5.95c-0.01,0.01-0.01,0.02-0.01,0.03   c-1.01,2.84-1.31,5.25-1.32,5.29c-0.01,0.06,0.03,0.12,0.08,0.13c0,0,0.01,0,0.01,0c0.05,0,0.1-0.04,0.1-0.1   c0-0.04,0.31-2.42,1.3-5.22c0.35-0.2,3.05-1.6,5.56,0.04c0.05,0.03,0.11,0.01,0.13-0.05c0.03-0.06,0.01-0.13-0.04-0.16   c-2.33-1.52-4.78-0.52-5.54-0.14c0.7-1.89,1.71-3.95,3.15-5.6c0.02-0.02,0.03-0.05,0.03-0.09c1.57-0.04,3.22,0.92,7.19-0.46   c4.21-1.46,4.44-6.1,4.44-6.1C32.86,151.85,31.41,158.94,31.26,159.9z"
   id="path2084" />
	<path
   class="st0"
   d="M44.74,79.31c-0.01-0.03-0.02-0.05-0.04-0.07c-2.36-1.59-5.08-1.79-6.24-1.79c3.01-1.4,5.65-2.8,7.14-4.1   c0.02-0.02,0.04-0.05,0.04-0.08c9.57,1.86,12.39-9.71,12.39-9.71c-11.47,0.48-12.63,8.6-12.52,9.59c-0.01,0-0.02,0-0.02,0.01   c-1.68,1.45-4.83,3.06-8.34,4.64c0.87-1.65,1.05-4.13,1.06-4.24c0-0.04-0.01-0.07-0.04-0.09c0.54-0.76,4.46-6.6,1.49-12.33   c0,0-6.41,7.43-1.62,12.33c-0.01,0.02-0.03,0.04-0.03,0.07c0,0.03-0.21,2.82-1.18,4.4c-1.98,0.89-4.07,1.77-6.06,2.6   c-1.7,0.71-3.3,1.39-4.68,2c-1.99,0.88-3.97,2.45-5.72,4.14c0.34-2.03,0.74-4.09,1.22-6.18c0.24-1.04,0.45-2.09,0.65-3.13   c5.15-6.78,10.64-14.7,14.06-19.71c0.11-0.09,2.81-2.14,5.43-2.63c0.03-0.01,0.06-0.03,0.07-0.07c5.09,3.09,9.25-2.36,9.25-2.36   c-6.65-3.76-8.99,1.43-9.3,2.21c-0.02-0.01-0.03-0.02-0.05-0.02c-2.04,0.38-4.12,1.69-5.03,2.33c1.78-2.62,2.91-4.32,3-4.46   c5.42-1.91,4.47-12.17,4.47-12.17c-5.97,3.69-4.75,11.01-4.56,11.98c-0.02,0.01-0.04,0.01-0.06,0.04   c-0.04,0.06-1.81,2.73-4.47,6.61c-0.03-1.12-0.43-3.08-0.45-3.17c-0.01-0.04-0.03-0.06-0.06-0.08c0.29-0.88,2.14-7.37-4.26-9.25   c-0.1-0.03-1.12,8.14,4.14,9.33c0,0.02-0.01,0.03-0.01,0.05c0.01,0.02,0.5,2.43,0.44,3.41c-3.36,4.89-8.06,11.6-12.53,17.51   c0.93-5.12,1.36-10.19,1.44-15.07c3.15-2.54,2.73-7.02,2.73-7.02c-1.13,0.33-2.04,0.75-2.79,1.21c-0.13-3.46-0.41-6.78-0.79-9.9   c0.03-0.08,0.65-1.91,1.85-4.09c0.22-0.07,1.52-0.41,3.68-0.26c0.05,0,0.08-0.03,0.09-0.08c5.98,2.52,8.6-2.39,8.6-2.39   c-4.02-3.35-8.08,1.57-8.62,2.27c-0.02-0.02-0.03-0.03-0.06-0.03c-1.84-0.13-3.04,0.09-3.53,0.21c0.72-1.27,1.63-2.63,2.73-3.81   c0.02-0.03,0.03-0.06,0.03-0.1c7.15-0.73,6.8-9.18,6.8-9.18c-8.74,2.43-7.19,8.27-6.92,9.09c-0.01,0-0.02,0-0.03,0.01   c-1.19,1.28-2.16,2.76-2.9,4.11c0,0.01-0.01,0.01-0.01,0.01c-0.92,1.67-1.51,3.14-1.76,3.8c-0.03-0.27-0.07-0.54-0.11-0.81   c0.01-0.03,0-0.06-0.01-0.09c0,0,0,0,0-0.01c-0.48-3.59-1.07-6.9-1.7-9.83c-1.3-6.11-2.84-11.24-4.07-14.86   c0-0.01,0-0.01-0.01-0.02c-0.45-1.34-0.87-2.48-1.2-3.37c0.75-1.9,1.55-3.76,1.56-3.77c0.01-0.03,0.01-0.05,0.01-0.08   c6.02-1.63,3.63-10.24,3.63-10.24c-5.4,3.73-4,9.33-3.76,10.16c-0.02,0.01-0.04,0.03-0.06,0.05c-0.01,0.02-0.76,1.76-1.49,3.6   c-0.51-1.34-0.83-2.09-0.84-2.11c-0.01-0.02-0.02-0.03-0.04-0.04c0.43-0.88,3.47-7.91-4.82-14.03c0,0-2.9,10.87,4.68,14.08   c-0.01,0.03-0.01,0.06,0,0.1c0.02,0.04,0.87,2.03,2.05,5.47c-2.7-1.52-4.52-1.63-4.54-1.63c-0.02,0-0.04,0.01-0.06,0.03   c-2.9-5.14-8.29-2.41-8.29-2.41c3.9,5.55,7.7,2.99,8.27,2.56c0.02,0.03,0.04,0.05,0.07,0.06c0.01,0,1.89,0.11,4.66,1.72   c1.22,3.61,2.75,8.72,4.05,14.81c0.59,2.76,1.15,5.87,1.62,9.24c-1.53-2.75-4.51-5.05-4.54-5.08c-0.02-0.01-0.04-0.01-0.06-0.01   c-0.37-6.47-7.09-7.56-7.09-7.56c0.1,8.4,6.18,7.81,7.01,7.69c0,0.03,0.02,0.06,0.04,0.08c0.03,0.03,3.33,2.57,4.73,5.48   c0.47,3.52,0.81,7.31,0.96,11.29c-3.78,2.49-2.8,6.27-2.59,6.95c-0.03,0.02-0.06,0.05-0.06,0.1c0,0.03-0.17,2.48-0.74,4.57   c-0.16-0.49-0.33-0.96-0.5-1.4c0-0.04-0.01-0.07-0.03-0.09c0,0-0.01,0-0.01-0.01c-1.42-3.56-3.18-5.69-3.21-5.73   c-0.01-0.02-0.03-0.02-0.05-0.03c0.12-0.86,0.68-6.69-6.39-7.01c0,0,0.89,6.92,6.28,7.11c0,0.03,0.01,0.06,0.03,0.09   c0.03,0.04,1.64,1.98,3.01,5.26c-2.4-2.07-4.47-1.28-4.49-1.27c-0.01,0-0.01,0.01-0.02,0.02c-3.22-6.08-9.55-0.82-9.55-0.82   c5.67,5.77,9.07,1.64,9.54,1c0.02,0.03,0.06,0.04,0.09,0.03c0.02-0.01,2.17-0.83,4.61,1.51c1.25,3.16,2.22,7.45,1.46,12.41   c-2.9,3.94-5.13,9.13-6.48,14.87c-0.29-2.65-1.84-6.68-1.91-6.86c-0.01-0.03-0.04-0.05-0.07-0.06c-0.51-6.92-7.43-7.37-7.43-7.37   c-0.23,5.36,6.34,7.21,7.31,7.45c0,0.03-0.01,0.05,0,0.08c0.02,0.05,1.77,4.58,1.93,7.16c-0.38-0.28-1.4-0.9-2.7-0.9   c-0.04,0-0.07,0.03-0.09,0.08C5.2,90.24,2.54,96.7,2.54,96.7c7.27,2.53,8.77-2.46,8.95-3.24c0.01,0,0.01,0.01,0.02,0.01   c1.41-0.01,2.48,0.77,2.7,0.94c-0.67,3.05-1.1,6.24-1.23,9.46c-0.14,3.32,0.01,7.32,0.76,11.74c0,0,0,0,0,0.01   c0,0.01,0,0.01,0,0.02c0.17,1,0.37,2.03,0.61,3.08c-1.88-1.56-3.99-1.86-4.01-1.87c-0.02,0-0.04,0-0.06,0.01   C7.42,109.86,0,112.08,0,112.08c4.05,9.06,9.55,5.46,10.26,4.94c0.02,0.03,0.04,0.05,0.07,0.06c0.02,0,2.02,0.28,3.84,1.76   c-0.56-0.03-1.71,0.04-3.12,0.82c-0.04,0.02-0.06,0.07-0.05,0.12c-8.19,1.27-8.77,7.67-8.77,7.67c8.57,1.73,8.86-6.5,8.86-7.57   c0.01,0,0.03,0,0.04-0.01c1.72-0.95,3.05-0.81,3.32-0.77c1.42,6.03,4.03,12.69,8.58,19.44c0.4,1.57,0.78,3.03,1.13,4.35   c0.62,2.35,1.16,4.38,1.5,6.03c0.42,2.04,0.69,5.32,0.79,9.39c-0.99-2.76-3.66-5.19-3.78-5.3c-0.01-0.01-0.03-0.01-0.04-0.01   c0.12-0.97,0.72-8.38-8.69-9.63c0,0,1.23,10.09,8.58,9.73c0,0.03,0.01,0.07,0.04,0.09c0.03,0.03,2.81,2.55,3.75,5.31   c-0.57-0.65-1.88-1.68-4.34-1.35c-0.05,0.01-0.08,0.06-0.08,0.11c-6.44-0.51-9.69,5.4-9.69,5.4c1.62-0.28,5.13,0.51,7.82-0.89   c2.39-1.25,2.09-3.82,1.99-4.39c3.07-0.41,4.3,1.42,4.47,1.69c0.29,16.05-1.88,43.51-6.81,57.44c-0.02,0.06,0,0.13,0.05,0.15   c0.01,0,0.02,0.01,0.03,0.01c0.04,0,0.08-0.02,0.1-0.07c4.94-13.95,7.11-41.42,6.82-57.52c0.01-0.02,0.01-0.05,0.01-0.08   c0-0.01-0.01-0.02-0.01-0.02c-0.05-2.55-0.16-4.81-0.33-6.69c0,0,0,0,0-0.01c0.53-7.61,2.77-15.36,4.65-20.72   c0.11-0.16,0.73-0.93,3.08-1.78c0.02-0.01,0.03-0.03,0.05-0.04c4.68,4.56,9.57-1.69,9.57-1.69c-6.05-3.05-9.14,0.91-9.59,1.54   c-0.02-0.02-0.06-0.04-0.09-0.03c-1.62,0.59-2.44,1.14-2.84,1.5c1.39-3.92,2.55-6.45,2.57-6.51c0.01-0.02,0.01-0.05,0.01-0.07   c8.94-1.1,7.95-10.69,7.95-10.69c-8.57,3.17-8.16,9.68-8.06,10.6c-0.03,0-0.06,0.02-0.07,0.05c-0.03,0.06-1.28,2.8-2.75,7   c-0.01,0.01-0.02,0.03-0.02,0.03c-0.01,0.01,0,0.02,0,0.03c-0.16,0.46-0.33,0.95-0.5,1.45c-0.09-2.81-1.44-5.21-1.45-5.24   c-0.01-0.02-0.03-0.02-0.04-0.03c0.3-0.8,2.21-6.44-2.78-10.15c0,0-1.84,9.21,2.65,10.23c-0.01,0.03,0,0.06,0.01,0.09   c0.02,0.03,1.52,2.71,1.42,5.69c0,0,0,0,0,0.01c-1.62,4.94-3.31,11.32-3.88,17.69c-0.1-0.91-0.22-1.71-0.36-2.37   c-0.34-1.65-0.88-3.68-1.5-6.04c-1.85-6.98-4.61-17.44-5.38-30.42c1.99,1.67,4.53,1.53,4.53,1.53c-0.67-3.74-2.96-5.56-4.72-6.41   c-0.02-1.04-0.02-2.1-0.01-3.17c1.12-1,2.49-1.72,4.17-1.95c0.02,0,0.03-0.02,0.05-0.03c2.93,4.69,8.66,1.52,8.66,1.52   c-3.56-5.54-8.03-2.17-8.64-1.67c-0.02-0.03-0.05-0.06-0.09-0.05c-1.66,0.22-3.02,0.92-4.14,1.89c0.02-1.42,0.06-2.87,0.14-4.34   c0.18-0.84,1.25-5.16,3.9-6.99c0.02-0.01,0.02-0.03,0.03-0.04c4.11,3.24,10.24-2.1,10.24-2.1c-6.45-4.38-9.84,1.18-10.27,1.95   c-0.03-0.02-0.07-0.03-0.1-0.01c-2.15,1.48-3.27,4.52-3.75,6.17c0.23-3.73,0.65-7.61,1.32-11.62c1.78-1.74,3.81-3.38,5.85-4.29   c1.38-0.61,2.98-1.29,4.68-2c2.34-0.99,4.82-2.03,7.1-3.07c0.27-0.02,3.75-0.23,6.68,1.74c0.01,0.01,0.03,0.01,0.04,0.01   c0.01,0,0.02,0,0.03-0.01c1.42,6.47,10.06,5.86,10.06,5.86C51.37,77.28,45.53,79.03,44.74,79.31z M21.38,80.47   c-0.5,2.19-0.91,4.35-1.27,6.47c-2.63,2.58-4.7,5.38-5.45,6.43c1.4-5.76,3.71-10.96,6.68-14.82c0.2-0.26,0.4-0.53,0.6-0.79   C21.77,78.66,21.59,79.56,21.38,80.47z M20.2,68.15c0.64-2.18,0.82-4.87,0.82-4.9c0-0.01-0.01-0.02-0.01-0.04   c1.02-0.27,1.85-0.69,2.52-1.19c-0.09,4.95-0.54,10.09-1.5,15.27c-0.28,0.37-0.56,0.74-0.84,1.1c-0.03,0.04-0.06,0.09-0.1,0.14   C21.64,74.55,21.1,71.01,20.2,68.15z M22.88,137.92c-5.21-7.87-7.79-15.59-8.94-22.32c0.04-0.44,0.53-4.96,2.69-8.6   c0.14,2.57,1.03,4.19,2.13,5.21C19.35,122.51,21.2,131.24,22.88,137.92z M18.58,107.41c-0.85-0.39-1.55-0.55-1.83-0.61   c0.51-0.83,1.11-1.61,1.82-2.28C18.56,105.5,18.57,106.46,18.58,107.41z M18.72,99.67c-0.02,0.08-0.03,0.12-0.03,0.13   c-0.01,0.03,0,0.06,0.01,0.09c-0.07,1.47-0.11,2.91-0.13,4.33c-3.41,3.11-4.48,8.74-4.75,10.7c-0.66-4.15-0.78-7.89-0.65-11.03   c0.14-3.4,0.61-6.76,1.35-9.96c0.27-0.4,2.52-3.62,5.52-6.61C19.35,91.58,18.92,95.71,18.72,99.67z"
   id="path2086"
   style="fill-opacity:1;fill:#fffcf6" />
</g>
<g
   id="g2096"
   style="opacity:0.03;fill:#fffcf6;fill-opacity:1">
	<path
   class="st0"
   d="M82.22,50.98c-1.44-5.32-7.17-3.05-7.17-3.05C77.72,53.07,82.22,50.98,82.22,50.98z"
   id="path2090"
   style="fill:#fffcf6;fill-opacity:1" />
	<path
   class="st0"
   d="M84.74,57.03c0.03,0.01,0.06,0,0.08-0.02c1.53-1.76,2.59-3.96,3.29-5.95c0.01-0.01,0.01-0.02,0.01-0.03   c1.01-2.84,1.31-5.25,1.32-5.29c0.01-0.06-0.03-0.12-0.08-0.13c0,0-0.01,0-0.01,0c-0.05,0-0.1,0.04-0.1,0.1   c0,0.04-0.31,2.42-1.3,5.22c-0.35,0.2-3.05,1.6-5.56-0.04c-0.05-0.03-0.11-0.01-0.13,0.05c-0.03,0.06-0.01,0.13,0.04,0.16   c2.33,1.52,4.78,0.52,5.54,0.14c-0.7,1.89-1.71,3.95-3.15,5.6c-0.02,0.02-0.03,0.05-0.03,0.09c-1.57,0.04-3.22-0.92-7.19,0.46   c-4.21,1.46-4.44,6.1-4.44,6.1C83.14,65.08,84.59,57.99,84.74,57.03z"
   id="path2092"
   style="fill:#fffcf6;fill-opacity:1" />
	<path
   class="st0"
   d="M71.26,137.62c0.01,0.03,0.02,0.05,0.04,0.07c2.36,1.59,5.08,1.79,6.24,1.79c-3.01,1.4-5.65,2.8-7.14,4.1   c-0.02,0.02-0.04,0.05-0.04,0.08c-9.57-1.86-12.39,9.71-12.39,9.71c11.47-0.48,12.63-8.6,12.52-9.59c0.01,0,0.02,0,0.02-0.01   c1.68-1.45,4.83-3.06,8.34-4.64c-0.87,1.65-1.05,4.13-1.06,4.24c0,0.04,0.01,0.07,0.04,0.09c-0.54,0.76-4.46,6.6-1.49,12.33   c0,0,6.41-7.43,1.62-12.33c0.01-0.02,0.03-0.04,0.03-0.07c0-0.03,0.21-2.82,1.18-4.4c1.98-0.89,4.07-1.77,6.06-2.6   c1.7-0.71,3.3-1.39,4.68-2c1.99-0.88,3.97-2.45,5.72-4.14c-0.34,2.03-0.74,4.09-1.22,6.18c-0.24,1.04-0.45,2.09-0.65,3.13   c-5.15,6.78-10.64,14.7-14.06,19.71c-0.11,0.09-2.81,2.14-5.43,2.63c-0.03,0.01-0.06,0.03-0.07,0.07   c-5.09-3.09-9.25,2.36-9.25,2.36c6.65,3.76,8.99-1.43,9.3-2.21c0.02,0.01,0.03,0.02,0.05,0.02c2.04-0.38,4.12-1.69,5.03-2.33   c-1.78,2.62-2.91,4.32-3,4.46c-5.42,1.91-4.47,12.17-4.47,12.17c5.97-3.69,4.75-11.01,4.56-11.98c0.02-0.01,0.04-0.01,0.06-0.04   c0.04-0.06,1.81-2.73,4.47-6.61c0.03,1.12,0.43,3.08,0.45,3.17c0.01,0.04,0.03,0.06,0.06,0.08c-0.29,0.88-2.14,7.37,4.26,9.25   c0.1,0.03,1.12-8.14-4.14-9.33c0-0.02,0.01-0.03,0.01-0.05c-0.01-0.02-0.5-2.43-0.44-3.41c3.36-4.89,8.06-11.6,12.53-17.51   c-0.93,5.12-1.36,10.19-1.44,15.07c-3.15,2.54-2.73,7.02-2.73,7.02c1.13-0.33,2.04-0.75,2.79-1.21c0.13,3.46,0.41,6.78,0.79,9.9   c-0.03,0.08-0.65,1.91-1.85,4.09c-0.22,0.07-1.52,0.41-3.68,0.26c-0.05,0-0.08,0.03-0.09,0.08c-5.98-2.52-8.6,2.39-8.6,2.39   c4.02,3.35,8.08-1.57,8.62-2.27c0.02,0.02,0.03,0.03,0.06,0.03c1.84,0.13,3.04-0.09,3.53-0.21c-0.72,1.27-1.63,2.63-2.73,3.81   c-0.02,0.03-0.03,0.06-0.03,0.1c-7.15,0.73-6.8,9.18-6.8,9.18c8.74-2.43,7.19-8.27,6.92-9.09c0.01,0,0.02,0,0.03-0.01   c1.19-1.28,2.16-2.76,2.9-4.11c0-0.01,0.01-0.01,0.01-0.01c0.92-1.67,1.51-3.14,1.76-3.8c0.03,0.27,0.07,0.54,0.11,0.81   c-0.01,0.03,0,0.06,0.01,0.09c0,0,0,0,0,0.01c0.48,3.59,1.07,6.9,1.7,9.83c1.3,6.11,2.84,11.24,4.07,14.86c0,0.01,0,0.01,0.01,0.02   c0.45,1.34,0.87,2.48,1.2,3.37c-0.75,1.9-1.55,3.76-1.56,3.77c-0.01,0.03-0.01,0.05-0.01,0.08c-6.02,1.63-3.63,10.24-3.63,10.24   c5.4-3.73,4-9.33,3.76-10.16c0.02-0.01,0.04-0.03,0.06-0.05c0.01-0.02,0.76-1.76,1.49-3.6c0.51,1.34,0.83,2.09,0.84,2.11   c0.01,0.02,0.02,0.03,0.04,0.04c-0.43,0.88-3.47,7.91,4.82,14.03c0,0,2.9-10.87-4.68-14.08c0.01-0.03,0.01-0.06,0-0.1   c-0.02-0.04-0.87-2.03-2.05-5.47c2.7,1.52,4.52,1.63,4.54,1.63c0.02,0,0.04-0.01,0.06-0.03c2.9,5.14,8.29,2.41,8.29,2.41   c-3.9-5.55-7.7-2.99-8.27-2.56c-0.02-0.03-0.04-0.05-0.07-0.06c-0.01,0-1.89-0.11-4.66-1.72c-1.22-3.61-2.75-8.72-4.05-14.81   c-0.59-2.76-1.15-5.87-1.62-9.24c1.53,2.75,4.51,5.05,4.54,5.08c0.02,0.01,0.04,0.01,0.06,0.01c0.37,6.47,7.09,7.56,7.09,7.56   c-0.1-8.4-6.18-7.81-7.01-7.69c0-0.03-0.02-0.06-0.04-0.08c-0.03-0.03-3.33-2.57-4.73-5.48c-0.47-3.52-0.81-7.31-0.96-11.29   c3.78-2.49,2.8-6.27,2.59-6.95c0.03-0.02,0.06-0.05,0.06-0.1c0-0.03,0.17-2.48,0.74-4.57c0.16,0.49,0.33,0.96,0.5,1.4   c0,0.04,0.01,0.07,0.03,0.09c0,0,0.01,0,0.01,0.01c1.42,3.56,3.18,5.69,3.21,5.73c0.01,0.02,0.03,0.02,0.05,0.03   c-0.12,0.86-0.68,6.69,6.39,7.01c0,0-0.89-6.92-6.28-7.11c0-0.03-0.01-0.06-0.03-0.09c-0.03-0.04-1.64-1.98-3.01-5.26   c2.4,2.07,4.47,1.28,4.49,1.27c0.01,0,0.01-0.01,0.02-0.02c3.22,6.08,9.55,0.82,9.55,0.82c-5.67-5.77-9.07-1.64-9.54-1   c-0.02-0.03-0.06-0.04-0.09-0.03c-0.02,0.01-2.17,0.83-4.61-1.51c-1.25-3.16-2.22-7.45-1.46-12.41c2.9-3.94,5.13-9.13,6.48-14.87   c0.29,2.65,1.84,6.68,1.91,6.86c0.01,0.03,0.04,0.05,0.07,0.06c0.51,6.92,7.43,7.37,7.43,7.37c0.23-5.36-6.34-7.21-7.31-7.45   c0-0.03,0.01-0.05,0-0.08c-0.02-0.05-1.77-4.58-1.93-7.16c0.38,0.28,1.4,0.9,2.7,0.9c0.04,0,0.07-0.03,0.09-0.08   c6.23,3.07,8.89-3.39,8.89-3.39c-7.27-2.53-8.77,2.46-8.95,3.24c-0.01,0-0.01-0.01-0.02-0.01c-1.41,0.01-2.48-0.77-2.7-0.94   c0.67-3.05,1.1-6.24,1.23-9.46c0.14-3.32-0.01-7.32-0.76-11.74c0,0,0,0,0-0.01c0-0.01,0-0.01,0-0.02c-0.17-1-0.37-2.03-0.61-3.08   c1.88,1.56,3.99,1.86,4.01,1.87c0.02,0,0.04,0,0.06-0.01c2.88,6.99,10.3,4.77,10.3,4.77c-4.05-9.06-9.55-5.46-10.26-4.94   c-0.02-0.03-0.04-0.05-0.07-0.06c-0.02,0-2.02-0.28-3.84-1.76c0.56,0.03,1.71-0.04,3.12-0.82c0.04-0.02,0.06-0.07,0.05-0.12   c8.19-1.27,8.77-7.67,8.77-7.67c-8.57-1.73-8.86,6.5-8.86,7.57c-0.01,0-0.03,0-0.04,0.01c-1.72,0.95-3.05,0.81-3.32,0.77   c-1.42-6.03-4.03-12.69-8.58-19.44c-0.4-1.57-0.78-3.03-1.13-4.35c-0.62-2.35-1.16-4.38-1.5-6.03c-0.42-2.04-0.69-5.32-0.79-9.39   c0.99,2.76,3.66,5.19,3.78,5.3c0.01,0.01,0.03,0.01,0.04,0.01c-0.12,0.97-0.72,8.38,8.69,9.63c0,0-1.23-10.09-8.58-9.73   c0-0.03-0.01-0.07-0.04-0.09c-0.03-0.03-2.81-2.55-3.75-5.31c0.57,0.65,1.88,1.68,4.34,1.35c0.05-0.01,0.08-0.06,0.08-0.11   c6.44,0.51,9.69-5.4,9.69-5.4c-1.62,0.28-5.13-0.51-7.82,0.89c-2.39,1.25-2.09,3.82-1.99,4.39c-3.07,0.41-4.3-1.42-4.47-1.69   c-0.29-16.05,1.88-43.51,6.81-57.44c0.02-0.06,0-0.13-0.05-0.15c-0.01,0-0.02-0.01-0.03-0.01c-0.04,0-0.08,0.02-0.1,0.07   c-4.94,13.95-7.11,41.42-6.82,57.52c-0.01,0.02-0.01,0.05-0.01,0.08c0,0.01,0.01,0.02,0.01,0.02c0.05,2.55,0.16,4.81,0.33,6.69   c0,0,0,0,0,0.01C89.14,72.26,86.9,80,85.02,85.37c-0.11,0.16-0.73,0.93-3.08,1.78c-0.02,0.01-0.03,0.03-0.05,0.04   c-4.68-4.56-9.57,1.69-9.57,1.69c6.05,3.05,9.14-0.91,9.59-1.54c0.02,0.02,0.06,0.04,0.09,0.03c1.62-0.59,2.44-1.14,2.84-1.5   c-1.39,3.92-2.55,6.45-2.57,6.51c-0.01,0.02-0.01,0.05-0.01,0.07c-8.94,1.1-7.95,10.69-7.95,10.69c8.57-3.17,8.16-9.68,8.06-10.6   c0.03,0,0.06-0.02,0.07-0.05c0.03-0.06,1.28-2.8,2.75-7c0.01-0.01,0.02-0.03,0.02-0.03c0.01-0.01,0-0.02,0-0.03   c0.16-0.46,0.33-0.95,0.5-1.45c0.09,2.81,1.44,5.21,1.45,5.24c0.01,0.02,0.03,0.02,0.04,0.03c-0.3,0.8-2.21,6.44,2.78,10.15   c0,0,1.84-9.21-2.65-10.23c0.01-0.03,0-0.06-0.01-0.09c-0.02-0.03-1.52-2.71-1.42-5.69c0,0,0,0,0-0.01   c1.62-4.94,3.31-11.32,3.88-17.69c0.1,0.91,0.22,1.71,0.36,2.37c0.34,1.65,0.88,3.68,1.5,6.04c1.85,6.98,4.61,17.44,5.38,30.42   c-1.99-1.67-4.53-1.53-4.53-1.53c0.67,3.74,2.96,5.56,4.72,6.41c0.02,1.04,0.02,2.1,0.01,3.17c-1.12,1-2.49,1.72-4.17,1.95   c-0.02,0-0.03,0.02-0.05,0.03c-2.93-4.69-8.66-1.52-8.66-1.52c3.56,5.54,8.03,2.17,8.64,1.67c0.02,0.03,0.05,0.06,0.09,0.05   c1.66-0.22,3.02-0.92,4.14-1.89c-0.02,1.42-0.06,2.87-0.14,4.34c-0.18,0.84-1.25,5.16-3.9,6.99c-0.02,0.01-0.02,0.03-0.03,0.04   c-4.11-3.24-10.24,2.1-10.24,2.1c6.45,4.38,9.84-1.18,10.27-1.95c0.03,0.02,0.07,0.03,0.1,0.01c2.15-1.48,3.27-4.52,3.75-6.17   c-0.23,3.73-0.65,7.61-1.32,11.62c-1.78,1.74-3.81,3.38-5.85,4.29c-1.38,0.61-2.98,1.29-4.68,2c-2.34,0.99-4.82,2.03-7.1,3.07   c-0.27,0.02-3.75,0.23-6.68-1.74c-0.01-0.01-0.03-0.01-0.04-0.01c-0.01,0-0.02,0-0.03,0.01c-1.42-6.47-10.06-5.86-10.06-5.86   C64.63,139.65,70.47,137.9,71.26,137.62z M94.62,136.47c0.5-2.19,0.91-4.35,1.27-6.47c2.63-2.58,4.7-5.38,5.45-6.43   c-1.4,5.76-3.71,10.96-6.68,14.82c-0.2,0.26-0.4,0.53-0.6,0.79C94.23,138.27,94.42,137.37,94.62,136.47z M95.8,148.78   c-0.64,2.18-0.82,4.87-0.82,4.9c0,0.01,0.01,0.02,0.01,0.04c-1.02,0.27-1.85,0.69-2.52,1.19c0.09-4.95,0.54-10.09,1.5-15.27   c0.28-0.37,0.56-0.74,0.84-1.1c0.03-0.04,0.06-0.09,0.1-0.14C94.36,142.39,94.91,145.92,95.8,148.78z M93.13,79.02   c5.21,7.87,7.79,15.59,8.94,22.32c-0.04,0.44-0.53,4.96-2.69,8.6c-0.14-2.57-1.03-4.19-2.13-5.21   C96.65,94.42,94.8,85.69,93.13,79.02z M97.42,109.52c0.85,0.39,1.55,0.55,1.83,0.61c-0.51,0.83-1.11,1.61-1.82,2.28   C97.44,111.43,97.43,110.47,97.42,109.52z M97.28,117.26c0.02-0.08,0.03-0.12,0.03-0.13c0.01-0.03,0-0.06-0.01-0.09   c0.07-1.47,0.11-2.91,0.13-4.33c3.41-3.11,4.48-8.74,4.75-10.7c0.66,4.15,0.78,7.89,0.65,11.03c-0.14,3.4-0.61,6.76-1.35,9.96   c-0.27,0.4-2.52,3.62-5.52,6.61C96.65,125.35,97.08,121.23,97.28,117.26z"
   id="path2094"
   style="fill:#fffcf6;fill-opacity:1" />
</g>
</svg>
