<?xml version="1.0" encoding="UTF-8" standalone="no"?>
<svg
   fill="none"
   viewBox="0 0 36 36"
   version="1.1"
   id="svg2987"
   sodipodi:docname="favicon.svg"
   inkscape:version="1.2.2 (b0a8486541, 2022-12-01)"
   xmlns:inkscape="http://www.inkscape.org/namespaces/inkscape"
   xmlns:sodipodi="http://sodipodi.sourceforge.net/DTD/sodipodi-0.dtd"
   xmlns="http://www.w3.org/2000/svg"
   xmlns:svg="http://www.w3.org/2000/svg">
  <sodipodi:namedview
     id="namedview2989"
     pagecolor="#505050"
     bordercolor="#eeeeee"
     borderopacity="1"
     inkscape:showpageshadow="0"
     inkscape:pageopacity="0"
     inkscape:pagecheckerboard="0"
     inkscape:deskcolor="#505050"
     showgrid="false"
     inkscape:zoom="9.1263257"
     inkscape:cx="31.557059"
     inkscape:cy="8.7658498"
     inkscape:window-width="1920"
     inkscape:window-height="1011"
     inkscape:window-x="0"
     inkscape:window-y="32"
     inkscape:window-maximized="1"
     inkscape:current-layer="g1646" />
  <defs
     id="defs2983">
    <linearGradient
       id="gradient"
       x1="16"
       x2="16"
       y1="32"
       y2="24"
       gradientUnits="userSpaceOnUse">
      <stop
         stop-color="#000"
         id="stop2978" />
      <stop
         offset="1"
         stop-color="#000"
         stop-opacity="0"
         id="stop2980" />
    </linearGradient>
    <linearGradient
       x1="0"
       y1="0"
       x2="1"
       y2="0"
       gradientUnits="userSpaceOnUse"
       gradientTransform="matrix(26.941223,46.663567,46.663567,-26.941223,626.31738,586.14764)"
       spreadMethod="pad"
       id="linearGradient1668">
      <stop
         style="stop-opacity:1;stop-color:#fbe6b3"
         offset="0"
         id="stop1658" />
      <stop
         style="stop-opacity:1;stop-color:#fbe6b3"
         offset="0"
         id="stop1660" />
      <stop
         style="stop-opacity:1;stop-color:#ba9211"
         offset="0.227907"
         id="stop1662" />
      <stop
         style="stop-opacity:1;stop-color:#e1c278"
         offset="0.606132"
         id="stop1664" />
      <stop
         style="stop-opacity:1;stop-color:#b7973f"
         offset="1"
         id="stop1666" />
    </linearGradient>
    <linearGradient
       x1="0"
       y1="0"
       x2="1"
       y2="0"
       gradientUnits="userSpaceOnUse"
       gradientTransform="matrix(52.381439,90.72731,90.72731,-52.381439,615.15149,564.27509)"
       spreadMethod="pad"
       id="linearGradient1694">
      <stop
         style="stop-opacity:1;stop-color:#fbe6b3"
         offset="0"
         id="stop1684" />
      <stop
         style="stop-opacity:1;stop-color:#fbe6b3"
         offset="0"
         id="stop1686" />
      <stop
         style="stop-opacity:1;stop-color:#ba9211"
         offset="0.227907"
         id="stop1688" />
      <stop
         style="stop-opacity:1;stop-color:#e1c278"
         offset="0.606132"
         id="stop1690" />
      <stop
         style="stop-opacity:1;stop-color:#b7973f"
         offset="1"
         id="stop1692" />
    </linearGradient>
    <linearGradient
       x1="0"
       y1="0"
       x2="1"
       y2="0"
       gradientUnits="userSpaceOnUse"
       gradientTransform="matrix(37.087017,64.236595,64.236595,-37.087017,622.76892,577.66553)"
       spreadMethod="pad"
       id="linearGradient1724">
      <stop
         style="stop-opacity:1;stop-color:#fbe6b3"
         offset="0"
         id="stop1710" />
      <stop
         style="stop-opacity:1;stop-color:#fbe6b3"
         offset="0"
         id="stop1712" />
      <stop
         style="stop-opacity:1;stop-color:#ba9211"
         offset="0.227907"
         id="stop1714" />
      <stop
         style="stop-opacity:1;stop-color:#e1c278"
         offset="0.413953"
         id="stop1716" />
      <stop
         style="stop-opacity:1;stop-color:#faefb1"
         offset="0.586047"
         id="stop1718" />
      <stop
         style="stop-opacity:1;stop-color:#fadf98"
         offset="0.772093"
         id="stop1720" />
      <stop
         style="stop-opacity:1;stop-color:#b7973f"
         offset="1"
         id="stop1722" />
    </linearGradient>
  </defs>
  <style
     id="style2985">
    @media (prefers-color-scheme:dark){:root{filter:invert(100%)}}
  </style>
  <path
     style="opacity:1;fill:#2e3b00;stroke-width:2.57614;stroke-dasharray:2.57614, 5.15227;fill-opacity:1"
     id="path3656"
     sodipodi:type="arc"
     sodipodi:cx="18"
     sodipodi:cy="18"
     sodipodi:rx="18"
     sodipodi:ry="18"
     sodipodi:start="0"
     sodipodi:end="6.2797909"
     sodipodi:open="true"
     sodipodi:arc-type="arc"
     d="M 36,18 A 18,18 0 0 1 18.015275,35.999994 18,18 0 0 1 2.5924494e-5,18.03055 18,18 0 0 1 17.954176,5.8330094e-5 18,18 0 0 1 35.999896,17.938901" />
  <g
     id="g1646"
     transform="matrix(0.25722626,0,0,-0.25722626,-146.92801,174.87509)">
    <g
       id="g1648"
       transform="matrix(1.5334528,0,0,1.5334528,-341.21431,-325.14563)">
      <g
         id="g1654">
        <g
           id="g1656">
          <path
             d="m 636.481,635.602 c -1.2,-0.084 -2.356,-0.186 -3.471,-0.303 v 0 c -1.115,-0.119 -2.246,-0.22 -3.393,-0.304 v 0 c -1.149,-0.085 -2.399,-0.127 -3.75,-0.127 v 0 -0.76 c 0.473,0 1.013,-0.068 1.621,-0.202 v 0 c 0.608,-0.136 1.191,-0.381 1.748,-0.735 v 0 c 0.557,-0.355 1.02,-0.828 1.393,-1.419 v 0 c 0.371,-0.591 0.557,-1.343 0.557,-2.254 v 0 l -0.05,-16.77 c -2.263,-0.303 -4.239,-0.954 -5.928,-1.949 v 0 c -1.69,-0.998 -3.073,-2.213 -4.154,-3.648 v 0 c -1.082,-1.436 -1.832,-3.024 -2.255,-4.763 v 0 c -0.423,-1.74 -0.515,-3.487 -0.278,-5.243 v 0 c 0.236,-1.757 0.818,-3.471 1.747,-5.143 v 0 c 0.929,-1.671 2.23,-3.149 3.902,-4.432 v 0 c 1.672,-1.284 3.715,-2.313 6.13,-3.091 v 0 c 2.414,-0.777 5.226,-1.165 8.435,-1.165 v 0 c 3.648,0 6.856,0.498 9.625,1.495 v 0 c 2.77,0.996 5.083,2.304 6.942,3.926 v 0 c 1.857,1.621 3.25,3.462 4.179,5.523 v 0 c 0.929,2.059 1.393,4.136 1.393,6.23 v 0 c 0,1.959 -0.354,3.75 -1.063,5.371 v 0 c -0.709,1.62 -1.664,3.04 -2.863,4.255 v 0 c -1.199,1.216 -2.601,2.237 -4.205,3.065 v 0 c -1.605,0.828 -3.318,1.444 -5.143,1.85 v 0 c 3.446,0.877 6.021,2.22 7.727,4.027 v 0 c 1.705,1.806 2.559,3.723 2.559,5.75 v 0 c 0,2.027 -0.499,3.732 -1.495,5.118 v 0 c -0.997,1.384 -2.314,2.507 -3.951,3.368 v 0 c -1.639,0.862 -3.497,1.486 -5.574,1.874 v 0 c -2.077,0.389 -4.214,0.583 -6.408,0.583 v 0 c -1.454,0 -2.779,-0.043 -3.977,-0.127 m 9.804,-38.604 c 0.978,0.929 1.637,1.992 1.975,3.192 v 0 c 0.337,1.198 0.362,2.482 0.076,3.85 v 0 c -0.287,1.368 -0.921,2.652 -1.9,3.851 v 0 c -0.98,1.198 -2.297,2.236 -3.951,3.115 v 0 c -1.656,0.878 -3.666,1.452 -6.03,1.722 v 0 20.772 c 0.844,0.338 1.832,0.565 2.963,0.684 v 0 c 1.132,0.118 2.289,0.102 3.472,-0.05 v 0 c 1.181,-0.152 2.337,-0.44 3.47,-0.862 v 0 c 1.131,-0.423 2.144,-1.013 3.039,-1.773 v 0 c 0.895,-0.76 1.621,-1.681 2.179,-2.761 v 0 c 0.557,-1.082 0.836,-2.348 0.836,-3.8 v 0 c 0,-1.149 -0.27,-2.288 -0.81,-3.42 v 0 c -0.541,-1.131 -1.343,-2.127 -2.407,-2.989 v 0 c -1.064,-0.861 -2.39,-1.562 -3.977,-2.102 v 0 c -1.589,-0.541 -3.412,-0.811 -5.472,-0.811 v 0 -1.519 h 0.76 c 0.236,0 0.489,0.016 0.761,0.05 v 0 c 2.093,0 4.001,-0.354 5.724,-1.063 v 0 c 1.723,-0.71 3.199,-1.698 4.432,-2.964 v 0 c 1.233,-1.267 2.196,-2.761 2.888,-4.484 v 0 c 0.693,-1.722 1.039,-3.614 1.039,-5.674 v 0 c 0,-1.858 -0.329,-3.699 -0.988,-5.522 v 0 c -0.658,-1.824 -1.655,-3.453 -2.989,-4.89 v 0 c -1.334,-1.434 -2.997,-2.584 -4.991,-3.444 v 0 c -1.992,-0.861 -4.339,-1.292 -7.041,-1.292 v 0 c -2.399,0 -4.518,0.338 -6.359,1.013 v 0 c -1.84,0.676 -3.411,1.562 -4.71,2.66 v 0 c -1.302,1.098 -2.339,2.373 -3.117,3.825 v 0 c -0.778,1.451 -1.317,2.946 -1.621,4.483 v 0 c -0.304,1.537 -0.354,3.074 -0.151,4.611 v 0 c 0.202,1.536 0.624,2.946 1.266,4.23 v 0 c 0.641,1.283 1.511,2.398 2.608,3.344 v 0 c 1.098,0.945 2.39,1.603 3.877,1.976 v 0 -7.499 c 0,-0.742 -0.152,-1.36 -0.456,-1.848 v 0 c -0.304,-0.491 -0.684,-0.88 -1.14,-1.166 v 0 c -0.456,-0.287 -0.938,-0.49 -1.444,-0.608 v 0 c -0.506,-0.119 -0.963,-0.178 -1.368,-0.178 v 0 V 599 c 1.386,0 2.642,-0.33 3.775,-0.989 v 0 c 1.13,-0.659 2.237,-1.385 3.318,-2.178 v 0 c 1.08,-0.794 2.186,-1.52 3.318,-2.179 v 0 c 1.131,-0.658 2.389,-0.988 3.775,-0.988 v 0 0.659 c -0.406,0 -0.861,0.058 -1.368,0.177 v 0 c -0.507,0.118 -0.989,0.322 -1.444,0.609 v 0 c -0.456,0.286 -0.845,0.675 -1.166,1.164 v 0 c -0.321,0.49 -0.481,1.106 -0.481,1.85 v 0 13.932 c 1.487,-0.271 2.744,-0.76 3.774,-1.469 v 0 c 1.031,-0.709 1.85,-1.538 2.457,-2.482 v 0 c 0.609,-0.947 1.031,-1.968 1.267,-3.066 v 0 c 0.236,-1.098 0.32,-2.187 0.254,-3.268 v 0 c -0.068,-1.081 -0.262,-2.102 -0.583,-3.065 v 0 c -0.321,-0.962 -0.734,-1.781 -1.241,-2.457 v 0 l 0.102,-0.101 c 1.552,0.304 2.819,0.92 3.8,1.849"
             style="fill:url(#linearGradient1668);stroke:none"
             id="path1670" />
        </g>
      </g>
    </g>
  </g>
</svg>
